<svg xmlns="http://www.w3.org/2000/svg" xmlns:xlink="http://www.w3.org/1999/xlink" width="29.998" height="29.998" viewBox="0 0 29.998 29.998"><defs><linearGradient id="a" x1="0.084" y1="0.916" x2="0.916" y2="0.084" gradientUnits="objectBoundingBox"><stop offset="0" stop-color="#ffd600"/><stop offset="0.5" stop-color="#ff0100"/><stop offset="1" stop-color="#d800b9"/></linearGradient><linearGradient id="b" x1="0.146" y1="0.854" x2="0.854" y2="0.146" gradientUnits="objectBoundingBox"><stop offset="0" stop-color="#ff6400"/><stop offset="0.5" stop-color="#ff0100"/><stop offset="1" stop-color="#fd0056"/></linearGradient><linearGradient id="c" x1="0.146" y1="0.854" x2="0.854" y2="0.146" gradientUnits="objectBoundingBox"><stop offset="0" stop-color="#f30072"/><stop offset="1" stop-color="#e50097"/></linearGradient></defs><path d="M29.907,8.815a11.012,11.012,0,0,0-.7-3.641,7.351,7.351,0,0,0-1.73-2.657A7.353,7.353,0,0,0,24.823.787a11.009,11.009,0,0,0-3.641-.7C19.583.017,19.072,0,15,0S10.414.017,8.815.09a11.013,11.013,0,0,0-3.641.7,7.351,7.351,0,0,0-2.657,1.73A7.352,7.352,0,0,0,.787,5.174a11.011,11.011,0,0,0-.7,3.641C.017,10.414,0,10.925,0,15s.017,4.585.091,6.184a11.009,11.009,0,0,0,.7,3.641,7.35,7.35,0,0,0,1.73,2.656,7.349,7.349,0,0,0,2.657,1.73,11.006,11.006,0,0,0,3.641.7c1.6.073,2.111.09,6.184.09s4.584-.017,6.184-.09a11.007,11.007,0,0,0,3.641-.7,7.668,7.668,0,0,0,4.386-4.386,11.008,11.008,0,0,0,.7-3.641c.073-1.6.09-2.111.09-6.184s-.017-4.584-.09-6.184Zm-2.7,12.245a8.3,8.3,0,0,1-.516,2.785,4.967,4.967,0,0,1-2.847,2.847,8.3,8.3,0,0,1-2.785.516C19.478,27.28,19,27.3,15,27.3s-4.48-.015-6.061-.087a8.3,8.3,0,0,1-2.785-.516,4.648,4.648,0,0,1-1.724-1.122,4.646,4.646,0,0,1-1.122-1.724A8.3,8.3,0,0,1,2.79,21.06C2.718,19.478,2.7,19,2.7,15s.015-4.479.087-6.061a8.3,8.3,0,0,1,.516-2.785A4.65,4.65,0,0,1,4.428,4.428,4.644,4.644,0,0,1,6.153,3.306,8.3,8.3,0,0,1,8.938,2.79C10.519,2.718,10.994,2.7,15,2.7h0c4,0,4.479.015,6.061.088a8.3,8.3,0,0,1,2.785.516,4.651,4.651,0,0,1,1.724,1.122,4.644,4.644,0,0,1,1.122,1.725,8.291,8.291,0,0,1,.517,2.785c.072,1.581.087,2.056.087,6.061S27.28,19.478,27.207,21.06Zm0,0" transform="translate(0 0)" fill="url(#a)"/><path d="M134.3,124.539a9.765,9.765,0,1,0,9.765,9.765A9.765,9.765,0,0,0,134.3,124.539Zm0,16.1a6.339,6.339,0,1,1,6.339-6.339A6.339,6.339,0,0,1,134.3,140.643Zm0,0" transform="translate(-119.305 -119.305)" fill="url(#b)"/><path d="M364.511,89.916a1.291,1.291,0,1,1-1.291-1.291A1.291,1.291,0,0,1,364.511,89.916Zm0,0" transform="translate(-339.907 -83.233)" fill="url(#c)"/></svg>