<svg xmlns="http://www.w3.org/2000/svg" width="30.683" height="30.817" viewBox="0 0 30.683 30.817"><path d="M.656,30.816a.656.656,0,0,1-.632-.829l2-7.316A15.281,15.281,0,1,1,15.4,30.563H15.4a15.311,15.311,0,0,1-7.07-1.736l-7.5,1.968a.659.659,0,0,1-.166.021Zm0,0" transform="translate(0 0.001)" fill="#e5e5e5"/><path d="M10.894,40.4l2.075-7.576a14.625,14.625,0,1,1,12.673,7.323h-.006a14.612,14.612,0,0,1-6.988-1.78Zm8.112-4.68.444.263a12.139,12.139,0,0,0,6.187,1.694h0a12.154,12.154,0,1,0-10.3-5.7l.289.46-1.228,4.484Zm0,0" transform="translate(-10.239 -10.239)" fill="#fff"/><path d="M19.344,47.867l2-7.314a14.118,14.118,0,1,1,12.234,7.069h-.006A14.116,14.116,0,0,1,26.828,45.9Zm0,0" transform="translate(-18.18 -18.216)" fill="#64b161"/><g transform="translate(0.656 0.656)"><path d="M10.894,40.4l2.075-7.576a14.625,14.625,0,1,1,12.673,7.323h-.006a14.612,14.612,0,0,1-6.988-1.78Zm8.112-4.68.444.263a12.139,12.139,0,0,0,6.187,1.694h0a12.154,12.154,0,1,0-10.3-5.7l.289.46-1.228,4.484Zm0,0" transform="translate(-10.894 -10.895)" fill="#fff"/><path d="M136.222,142.253c-.274-.608-.562-.621-.822-.631-.213-.009-.457-.009-.7-.009a1.343,1.343,0,0,0-.974.457,4.1,4.1,0,0,0-1.279,3.048,7.108,7.108,0,0,0,1.492,3.779c.183.244,2.528,4.051,6.242,5.516,3.087,1.217,3.715.975,4.385.914a3.69,3.69,0,0,0,2.466-1.737,3.051,3.051,0,0,0,.213-1.737c-.091-.152-.335-.244-.7-.426s-2.162-1.067-2.5-1.189-.579-.183-.822.183-.943,1.188-1.157,1.432-.426.275-.792.092a9.991,9.991,0,0,1-2.938-1.814A11.011,11.011,0,0,1,136.3,147.6c-.213-.365,0-.546.161-.746a11.015,11.015,0,0,0,.913-1.249.673.673,0,0,0-.03-.64C137.257,144.783,136.547,142.976,136.222,142.253Zm0,0" transform="translate(-125.13 -133.745)" fill="#fff" fill-rule="evenodd"/></g></svg>