<svg xmlns="http://www.w3.org/2000/svg" width="200.21" height="123.857" viewBox="0 0 200.21 123.857"><g transform="translate(-1162.349 -3696.148)"><g transform="translate(1131.31 3638.988)"><g transform="translate(9.347 -22.667)"><g transform="translate(21.692 79.827)"><g transform="translate(7.728)"><rect width="184.794" height="122.202" rx="5" fill="#263238"/></g><g transform="translate(0 113.165)"><path d="M0,0H200.21a0,0,0,0,1,0,0V0a10.692,10.692,0,0,1-10.692,10.692H10.692A10.692,10.692,0,0,1,0,0V0A0,0,0,0,1,0,0Z" fill="#263238"/></g><g transform="translate(12.688 4.855)"><rect width="174.356" height="103.198" fill="#e0e0e0"/></g><g transform="translate(81.908 113.165)"><path d="M278.454,424.59l2.484,3.952H315.9l2.307-3.952Z" transform="translate(-278.454 -424.59)" fill="#455a64"/></g><g transform="translate(18.503 11.727)"><rect width="160.529" height="96.286" fill="#fafafa"/></g><g transform="translate(22.662 15.129)"><path d="M180.609,259.575a1.347,1.347,0,1,1-1.347-1.347A1.347,1.347,0,0,1,180.609,259.575Z" transform="translate(-177.916 -258.228)" fill="#455a64"/></g><g transform="translate(28.158 15.129)"><path d="M189.936,259.575a1.347,1.347,0,1,1-1.347-1.347A1.347,1.347,0,0,1,189.936,259.575Z" transform="translate(-187.242 -258.228)" fill="#455a64"/></g><g transform="translate(33.654 15.129)"><path d="M199.263,259.575a1.347,1.347,0,1,1-1.347-1.347A1.347,1.347,0,0,1,199.263,259.575Z" transform="translate(-196.569 -258.228)" fill="#455a64"/></g><g transform="translate(18.503 22.215)"><path d="M331.387,270.407c0,.085-35.938.153-80.26.153-44.337,0-80.269-.068-80.269-.153s35.931-.154,80.269-.154C295.449,270.253,331.387,270.322,331.387,270.407Z" transform="translate(-170.858 -270.253)" fill="#455a64"/></g><g transform="translate(7.728 113.247)"><rect width="184.794" height="0.589" fill="#455a64"/></g><g transform="translate(31.665 28.866)"><g transform="translate(0 40.283)"><rect width="35.11" height="2.348" fill="#455a64"/></g><g transform="translate(45.35 7.674)"><rect width="35.11" height="2.349" fill="#455a64"/></g><g transform="translate(45.35 16.268)"><path d="M357.479,309.3c0,.084-19.551.154-43.663.154s-43.667-.07-43.667-.154,19.547-.154,43.667-.154S357.479,309.214,357.479,309.3Z" transform="translate(-270.15 -309.145)" fill="#455a64"/></g><g transform="translate(45.35 21.396)"><path d="M357.479,318c0,.084-19.551.154-43.663.154s-43.667-.07-43.667-.154,19.547-.154,43.667-.154S357.479,317.917,357.479,318Z" transform="translate(-270.15 -317.848)" fill="#455a64"/></g><g transform="translate(45.35 26.525)"><path d="M357.479,326.7c0,.085-19.551.154-43.663.154s-43.667-.069-43.667-.154,19.547-.154,43.667-.154S357.479,326.621,357.479,326.7Z" transform="translate(-270.15 -326.551)" fill="#455a64"/></g><g transform="translate(45.35 31.653)"><path d="M357.479,335.408c0,.085-19.551.154-43.663.154s-43.667-.069-43.667-.154,19.547-.154,43.667-.154S357.479,335.324,357.479,335.408Z" transform="translate(-270.15 -335.254)" fill="#455a64"/></g><g transform="translate(45.35 36.782)"><path d="M357.479,344.111c0,.085-19.551.154-43.663.154s-43.667-.069-43.667-.154,19.547-.154,43.667-.154S357.479,344.026,357.479,344.111Z" transform="translate(-270.15 -343.957)" fill="#455a64"/></g><g transform="translate(45.35 41.911)"><path d="M304.239,352.814c0,.085-7.632.154-17.044.154s-17.045-.069-17.045-.154,7.63-.153,17.045-.153S304.239,352.73,304.239,352.814Z" transform="translate(-270.15 -352.661)" fill="#455a64"/></g><g transform="translate(74.641 51.864)"><path d="M377.256,369.7c0,.085-12.85.154-28.7.154s-28.7-.069-28.7-.154,12.848-.154,28.7-.154S377.256,369.621,377.256,369.7Z" transform="translate(-319.856 -369.551)" fill="#455a64"/></g><g transform="translate(74.641 57.309)"><path d="M377.256,378.944c0,.085-12.85.154-28.7.154s-28.7-.068-28.7-.154,12.848-.153,28.7-.153S377.256,378.859,377.256,378.944Z" transform="translate(-319.856 -378.791)" fill="#455a64"/></g><g transform="translate(74.641 62.753)"><path d="M377.256,388.183c0,.084-12.85.153-28.7.153s-28.7-.068-28.7-.153,12.848-.154,28.7-.154S377.256,388.1,377.256,388.183Z" transform="translate(-319.856 -388.029)" fill="#455a64"/></g><g transform="translate(74.641 68.197)"><path d="M377.256,397.421c0,.084-12.85.153-28.7.153s-28.7-.069-28.7-.153,12.848-.154,28.7-.154S377.256,397.335,377.256,397.421Z" transform="translate(-319.856 -397.267)" fill="#455a64"/></g><g transform="translate(0.982 51.344)"><path d="M229.077,368.821c0,.085-7.661.154-17.108.154s-17.109-.069-17.109-.154,7.658-.153,17.109-.153S229.077,368.737,229.077,368.821Z" transform="translate(-194.86 -368.668)" fill="#455a64"/></g><g transform="translate(0.982 55.619)"><path d="M229.077,376.076c0,.085-7.661.154-17.108.154s-17.109-.068-17.109-.154,7.658-.153,17.109-.153S229.077,375.992,229.077,376.076Z" transform="translate(-194.86 -375.923)" fill="#455a64"/></g><g transform="translate(0.982 59.894)"><path d="M229.077,383.332c0,.084-7.661.154-17.108.154s-17.109-.07-17.109-.154,7.658-.154,17.109-.154S229.077,383.247,229.077,383.332Z" transform="translate(-194.86 -383.178)" fill="#455a64"/></g><g transform="translate(0.982 64.17)"><path d="M229.077,390.587c0,.085-7.661.154-17.108.154s-17.109-.069-17.109-.154,7.658-.153,17.109-.153S229.077,390.5,229.077,390.587Z" transform="translate(-194.86 -390.434)" fill="#455a64"/></g><g transform="translate(0.982 68.446)"><path d="M229.077,397.843c0,.084-7.661.153-17.108.153s-17.109-.068-17.109-.153,7.658-.154,17.109-.154S229.077,397.757,229.077,397.843Z" transform="translate(-194.86 -397.689)" fill="#455a64"/></g><rect width="35.199" height="34.054" fill="#e0e0e0"/><g transform="translate(2.729 13.616)"><path d="M197.825,322.169l9.737-17.524,7.964,11.2,4.839-5.948,7.2,12.272Z" transform="translate(-197.825 -304.645)" fill="#26975a"/></g><g transform="translate(18.757 7.674)"><path d="M230.089,297.1a2.533,2.533,0,1,1-2.533-2.533A2.533,2.533,0,0,1,230.089,297.1Z" transform="translate(-225.023 -294.562)" fill="#26975a"/></g><g transform="translate(2.524 2.65)"><path d="M227.422,314.621a1.211,1.211,0,0,1-.008-.14c0-.1-.005-.232-.008-.4q-.006-.543-.016-1.532c-.009-1.35-.021-3.3-.038-5.784-.018-4.974-.043-12.057-.074-20.561l.144.144-29.737.024c-.041.035.314-.315.164-.164v1.932q0,.965,0,1.922,0,1.915,0,3.792c0,2.5,0,4.953,0,7.338-.006,4.77-.011,9.278-.017,13.427l-.146-.146,21.5.074,6.065.038,1.609.017.417.008a1.043,1.043,0,0,1,.147.009.967.967,0,0,1-.13.008l-.4.009-1.58.017-6.032.039-21.6.074h-.146v-.147c-.005-4.149-.011-8.657-.017-13.427,0-2.385,0-4.835,0-7.338q0-1.877,0-3.792,0-.957,0-1.922v-1.932c-.15.147.2-.209.171-.171l29.737.023h.145v.144c-.031,8.542-.056,15.657-.074,20.654-.016,2.466-.029,4.408-.038,5.75q-.011.971-.017,1.505c0,.159-.006.284-.008.381A.612.612,0,0,1,227.422,314.621Z" transform="translate(-197.477 -286.036)" fill="#455a64"/></g><g transform="translate(45.328 49.42)"><rect width="24.911" height="24.101" fill="#e0e0e0"/><g transform="translate(1.931 9.636)"><path d="M273.391,394.159l6.891-12.4,5.637,7.927,3.425-4.209,5.1,8.685Z" transform="translate(-273.391 -381.756)" fill="#26975a"/></g><g transform="translate(13.274 5.432)"><path d="M296.225,376.414a1.793,1.793,0,1,1-1.793-1.793A1.793,1.793,0,0,1,296.225,376.414Z" transform="translate(-292.64 -374.621)" fill="#26975a"/></g><g transform="translate(1.786 1.875)"><path d="M294.337,388.816a.78.78,0,0,1-.005-.1c0-.073,0-.165-.006-.282,0-.256-.007-.618-.012-1.084-.006-.956-.015-2.338-.026-4.093-.012-3.52-.031-8.533-.052-14.551l.1.1-21.045.018c-.028.025.222-.223.116-.116v2.727q0,1.355,0,2.684,0,2.657,0,5.193c0,3.375-.008,6.567-.012,9.5l-.1-.1,15.218.053,4.292.026,1.139.012.3.006a.725.725,0,0,1,.1.006.534.534,0,0,1-.091.005l-.284.007-1.118.012-4.269.027-15.284.053h-.1v-.1c0-2.936-.008-6.127-.011-9.5q0-2.532,0-5.193,0-1.328,0-2.684V368.71c-.105.1.144-.148.121-.122l21.045.017h.1v.1c-.022,6.045-.04,11.08-.052,14.616-.011,1.745-.02,3.12-.027,4.07q-.008.688-.012,1.066c0,.112,0,.2-.006.27A.4.4,0,0,1,294.337,388.816Z" transform="translate(-273.145 -368.586)" fill="#455a64"/></g></g></g></g></g></g></g></svg>