<svg xmlns="http://www.w3.org/2000/svg" width="278" height="291.423" viewBox="0 0 278 291.423">
  <path id="Path_520" data-name="Path 520" d="M447.179,394.016c.92-1.7,8.452-3.39,20.773-3.592a156.922,156.922,0,0,1,47.313,8.047c30.279,9.72,54.266,26.612,60.086,34.251-2.569-10.644-5.752-21.133-9.268-31.492-4.337,2.2-30.909-8.369-61.584-15.786a369.338,369.338,0,0,0-40.1-7.413c-9.689-1.4-15.254-1.986-14.624-3.651.63-1.542,7.187-3.687,17.934-4.757a137.763,137.763,0,0,1,18.842-.151,154.341,154.341,0,0,1,23.207,3.405c3.3.749,6.6,1.546,9.776,2.446,3.12.936,6.176,1.923,9.138,2.953a150.975,150.975,0,0,1,16.166,6.636,112.294,112.294,0,0,1,12.321,6.739,43.4,43.4,0,0,1,7.548,5.649c-1.53-4.606-3.441-9.07-5.15-13.609q-2.795-6.714-5.76-13.359c-2.164.931-9.3-.174-19.119-2.184-4.9-.947-10.569-2.046-16.781-3.251-6.077-1.181-12.82-2.184-19.476-3.239-3.651-.515-7.254-.888-10.616-1.277-3.4-.345-6.5-.789-9.621-.943-3.013-.194-5.875-.377-8.559-.551-2.624-.17-4.995-.357-7.239-.38a90.553,90.553,0,0,1-10.061-.662c-2.248-.345-3.473-.682-3.263-1.435.194-.722,1.72-1.665,4.377-2.692a57.754,57.754,0,0,1,11.06-2.87,124.636,124.636,0,0,1,37.422-.69c23.361,2.815,43.547,11.266,50.068,16.392l-3.247-6.767-3.516-6.632c-2.255-4.468-4.9-8.713-7.421-13.034-1.054.472-3.187.63-6.156.559-3-.056-6.926-.274-11.409-.618-8.892-.757-20.5-1.613-32.519-1.891-13.272-.282-24.649.472-32.475.979-7.992.745-12.293.69-12.186-.591.087-.658,1.368-1.669,3.643-2.85a62.136,62.136,0,0,1,9.57-3.62,114.752,114.752,0,0,1,33.383-4.583c20.888-.131,39.044,5.36,46,9.058-2.751-4.083-5.312-8.3-8.218-12.273l-4.376-5.946-2.188-2.973-2.339-2.854c-2,1.106-8.119,1.621-16.376,2.018-4.143.21-9.007.6-14.053.944-2.5.186-5.1.38-7.782.583l-8.254.975c-3.009.392-5.95.777-8.789,1.15-2.775.377-5.554.967-8.059,1.411-2.478.468-4.832.912-7.04,1.332q-1.6.3-3.092.579l-2.9.662c-7.322,1.685-11.35,2.216-11.4.952-.024-.607,1.07-1.756,3-3.076a58.555,58.555,0,0,1,8.416-4.567c1.827-.833,3.857-1.685,6.085-2.537a73.37,73.37,0,0,1,7.171-2.41,144.079,144.079,0,0,1,17.122-3.687c9.276-1.106,18.648-1.511,26.12-.733,3.794.317,7.27.749,10.22,1.284a50.447,50.447,0,0,1,6.985,1.946c-1.59-1.879-3.088-3.845-4.757-5.657l-5.043-5.4c-3.266-3.695-6.91-7.013-10.493-10.39a19.034,19.034,0,0,1-5.268,1.883c-1.261.321-2.68.634-4.266.975-1.609.361-3.373.757-5.272,1.185-3.687.789-7.9,1.689-12.487,2.672q-1.671.363-3.409.745l-3.572.912q-3.544.933-7.278,1.919c-2.688.741-5.312,1.463-7.845,2.161-2.513.825-4.935,1.617-7.247,2.375-4.555,1.55-8.353,2.708-11.667,3.929-6.6,2.434-10.371,3.465-10.573,2.248-.162-1.2,3.271-4.4,9.609-8.369,1.586-.987,3.362-2.022,5.312-3.084l3.056-1.605q1.564-.708,3.219-1.455a143.989,143.989,0,0,1,15.215-5.578c4.139-1.169,8.194-2.01,12.162-2.739a86.815,86.815,0,0,1,11.219-1.435c6.842-.377,12.69-.226,16.138.476-3.718-3.247-7.6-6.307-11.389-9.471-3.956-2.953-8.027-5.748-12.035-8.634-1.613,1.253-6.275,3.223-12.376,5.5-3,1.106-6.41,2.363-10.109,3.73-3.647,1.368-7.635,3.076-11.583,4.7C426.1,284.54,418.141,288.6,412.658,291c-1.376.61-2.613,1.134-3.695,1.562-1.126.5-2.093.9-2.894,1.177-1.606.555-2.549.63-2.716.127-.321-1,2.47-4.107,7.714-8.214a95.83,95.83,0,0,1,9.439-6.212,114.414,114.414,0,0,1,12.614-6.45,129.263,129.263,0,0,1,19.056-6.3,74.506,74.506,0,0,1,13.744-1.772l-9.9-6.006c-3.4-1.831-6.87-3.52-10.3-5.292-3.715-1.027-9.74-2.505-16.935-4.9-3.544-1.332-7.667-2.164-11.893-3.473q-3.181-.957-6.541-1.966c-2.252-.618-4.6-1.1-6.961-1.7-25.557-6.573-47.143-9.562-46.984-12.88.083-1.51,5.653-2.359,14.723-2.49,4.551-.222,9.9.388,15.845,1.106,2.965.4,6.1.694,9.3,1.336,3.183.71,6.474,1.479,9.835,2.311,2.474.634,4.924,1.181,7.262,1.911q3.467,1.231,6.755,2.4c4.337,1.665,8.484,2.993,11.98,4.92,7.092,3.576,12.63,6.628,15.575,9.407,3.5,1.8,7.056,3.532,10.525,5.4l10.117,6.137a139.59,139.59,0,0,1-5.451-13.415c-2.275-5.8-5.118-12.63-8.257-20.376-4.7-10.537-8.959-20.071-12.059-27.02-3.136-6.858-4.721-11.409-3.425-11.877,2.486-1.074,15.817,15.009,24.42,36.538a135.346,135.346,0,0,1,4.678,13.145c1.162,4.234,2.03,8.1,2.644,11.469,1.205,6.775,1.459,11.512.837,13.669,4.1,2.945,8.257,5.8,12.293,8.82,3.873,3.227,7.837,6.355,11.631,9.673-1.11-3.425-2.482-8.947-4.024-16.313-.725-3.742-1.784-7.587-2.842-11.9-1.09-4.273-2.22-8.975-3.548-13.8-1.962-6.442-3.833-12.578-5.534-18.168-.444-1.431-.876-2.831-1.3-4.186l-1.312-3.826c-.832-2.5-1.613-4.836-2.327-6.969-2.8-8.61-4.135-14.236-2.537-14.541,1.562-.321,5.756,4.757,10.6,13.007a128.269,128.269,0,0,1,7.1,15.024c1.157,2.823,2.283,5.772,3.35,8.8.983,3.16,1.907,6.406,2.747,9.7q1.13,4.394,1.978,8.5.4,2.04.785,4.016c.218,1.34.389,2.68.555,3.972.65,5.181.991,9.847,1.1,13.863.055,2.006.052,3.853,0,5.522-.087,1.7-.234,3.255-.408,4.591a17.254,17.254,0,0,1-1.376,5.554c3.659,3.445,7.373,6.834,10.707,10.6l5.142,5.51c1.7,1.847,3.227,3.845,4.848,5.76a69.753,69.753,0,0,1-.817-7.5c-.3-3.029-.606-6.592-.9-10.672-.448-8.269-1.562-17.974-2.807-29.121-1.019-7.128-2.156-14.041-3.2-20.491-.487-3.266-1.122-6.208-1.665-9.046s-1.043-5.506-1.5-7.936a109.685,109.685,0,0,1-1.677-11.742c-.163-2.823.071-4.329.987-4.416,1.788-.151,5.6,6.1,9.669,15.841l1.514,3.814,1.376,4.258c.9,2.93,1.78,6.034,2.6,9.268.8,3.259,1.649,6.541,2.228,10.089s1.082,7.179,1.491,10.842q.547,4.959.832,9.558c.1,3.14.115,6.145.068,8.991a129.868,129.868,0,0,1-1.007,15.139c-1.28,8.844-3.041,14.632-4.527,16.356l2.387,2.91,2.224,3.025,4.456,6.053c2.953,4.048,5.562,8.329,8.357,12.483-.662-7.8,1.927-27.06,1.978-50.924.123-15.472-.547-30.108-1.126-40.669a117.887,117.887,0,0,1-.064-12.705c.175-2.961.682-4.579,1.657-4.511,1.982.063,5.082,7.294,7.988,18.224a151.528,151.528,0,0,1,3.255,19.159c.2,1.768.4,3.556.539,5.391q.113,2.771.234,5.653c.111,3.814.131,7.7.048,11.615a154.157,154.157,0,0,1-5.237,35.936,82.872,82.872,0,0,1-3.77,11.076c-1.269,2.811-2.41,4.65-3.314,5.372,2.561,4.385,5.249,8.7,7.536,13.237l3.572,6.731,3.29,6.866a66.3,66.3,0,0,1,1.09-8.654c.527-3.564,1.28-7.822,2.2-12.689,1-4.9,1.788-10.24,2.83-16.178,1.086-5.954,1.911-12.261,2.811-19,2.287-17.129,3.314-33.327,4.111-45.172.464-5.946.948-10.806,1.463-14.045.563-3.27,1.344-5.011,2.41-4.8,1.031.226,2.379,2.319,3.5,6.038a105.608,105.608,0,0,1,3.072,15.231,98.945,98.945,0,0,1,.876,10.2c.174,3.635.261,7.461.254,11.421.055,3.929-.325,8.123-.638,12.321-.373,4.218-.785,8.483-1.451,12.812-4.967,32.182-16.669,54.278-20.7,56.359,2.014,4.484,3.948,9.007,5.839,13.542,1.732,4.6,3.667,9.122,5.213,13.788.955-9.086,9.375-32.578,16.392-63.226,2.335-9.558,3.952-18.759,5.649-27.389,1.467-8.682,2.791-16.507,3.9-23.1,2.077-13.272,3.853-21.613,6.24-20.86,2.26.721,4.844,10.351,5.2,24.8a169.921,169.921,0,0,1-1.031,24.507c-.384,4.448-1.245,9.114-2.054,13.8-.864,4.706-1.784,9.455-3.1,14.275-9.348,36.344-25.3,60.078-29.807,61.164,3.56,10.489,6.783,21.105,9.379,31.876,1.681-9.661,14.077-35.821,25.664-70.742,7.187-21.141,12.15-41.442,16.158-56.415,3.647-14.9,6.652-24.265,9.241-23.135,1.28.543,2.307,3.627,2.977,8.654a79.879,79.879,0,0,1,.67,8.9c.024,3.405-.072,7.211-.3,11.326-.21,4.111-.587,8.535-1.288,13.2-.662,4.666-1.423,9.55-2.45,14.58-1.1,5.042-2.359,10.228-3.778,15.472-1.463,5.249-3.239,10.584-5.086,15.893-14.854,41.141-36.067,66.524-40.863,66.207a334.532,334.532,0,0,1,7.227,41.775,2.217,2.217,0,0,1-2.03,2.446,2.267,2.267,0,0,1-2.422-2.022,329.834,329.834,0,0,0-7.124-41.177c-1.07.638-3.707.214-7.588-1.019-3.925-1.217-9.094-3.235-15.159-5.74-12.257-4.971-28.32-11.77-45.628-17.724-4.535-1.51-8.816-2.977-13-4.257-4.143-1.209-8.135-2.375-11.944-3.485-3.782-1.023-7.385-1.887-10.644-2.72-3.235-.86-6.3-1.526-9.042-2.121s-5.146-1.165-7.207-1.693-3.881-.888-5.265-1.32C448.019,395.717,446.739,394.892,447.179,394.016Z" transform="translate(-356.401 -188.408)" fill="#108f6e" opacity="0.13"/>
</svg>
