<svg xmlns="http://www.w3.org/2000/svg" width="38.307" height="66.714" viewBox="0 0 38.307 66.714"><g transform="translate(0)"><path d="M131.795,371.28c7.357-4.816,9.225-14.036,9.143-22.365-.014-1.391.177-2.852-.463-4.087a2.879,2.879,0,0,0-3.456-1.55c-1.057.461-1.542,1.65-2.152,2.629a8.19,8.19,0,0,1-3.378,3.033,3.172,3.172,0,0,1-2.9.19c-1.2-.69-1.3-2.35-1.258-3.731q.118-3.863.238-7.725a12.73,12.73,0,0,0-.322-4.114,4.307,4.307,0,0,0-2.659-2.963,2.642,2.642,0,0,0-3.3,1.665,12.634,12.634,0,0,0-.081,1.72,1.457,1.457,0,0,1-.9,1.348,1.7,1.7,0,0,1-1.522-.671,18.353,18.353,0,0,1-3.22-5.06,25.438,25.438,0,0,0-2.991-5.213,7.6,7.6,0,0,0-5.06-2.962,4.538,4.538,0,0,0-4.723,2.941c-.556,1.936.547,3.94,1.762,5.546a31.077,31.077,0,0,0,6.356,6.277,2.548,2.548,0,0,1,1.061,1.182c.282.928-.626,1.822-1.555,2.1a16.407,16.407,0,0,1-3.276.285,3.156,3.156,0,0,0-2.727,1.556c-.608,1.4.553,2.908,1.706,3.905a26.844,26.844,0,0,0,7.813,4.7,9.074,9.074,0,0,1,2.909,1.483,2.536,2.536,0,0,1,.758,2.949,2.659,2.659,0,0,1-2.9,1.02,18.787,18.787,0,0,1-3.044-1.232c-1.907-.763-4.395-.691-5.667.92a4.327,4.327,0,0,0-.566,3.856,10.06,10.06,0,0,0,2.039,3.466,26.9,26.9,0,0,0,11.3,8.247c4.426,1.634,8.551,2.146,13.026.652" transform="translate(-102.648 -321.406)" fill="#26975a"/><g transform="translate(2.217 1.109)"><path d="M106.41,323.288a1.015,1.015,0,0,0,.133.134l.407.376c.359.329.888.814,1.552,1.455a52.141,52.141,0,0,1,5.208,5.825c1.011,1.305,2.057,2.781,3.153,4.386s2.248,3.332,3.395,5.189a62.2,62.2,0,0,1,3.309,5.988c.514,1.068.968,2.186,1.431,3.325l1.4,3.462a125.739,125.739,0,0,1,4.663,13.417,60.971,60.971,0,0,1,2.056,11.394,44.7,44.7,0,0,1-.06,7.808c-.1.917-.185,1.63-.262,2.11l-.078.548a1.039,1.039,0,0,0-.018.189,1.062,1.062,0,0,0,.044-.184c.025-.134.06-.315.1-.544.094-.478.2-1.189.311-2.108a42.726,42.726,0,0,0,.142-7.832,60.022,60.022,0,0,0-2.008-11.443,122.784,122.784,0,0,0-4.654-13.449l-1.4-3.464c-.463-1.136-.922-2.262-1.441-3.336a61.734,61.734,0,0,0-3.335-6.005c-1.155-1.859-2.319-3.582-3.42-5.185s-2.163-3.074-3.185-4.377a49.3,49.3,0,0,0-5.283-5.786c-.675-.632-1.216-1.106-1.586-1.422l-.424-.357A1.026,1.026,0,0,0,106.41,323.288Z" transform="translate(-106.41 -323.288)" fill="#263238"/></g><g transform="translate(19.521 9.189)"><path d="M135.781,352.153a2.689,2.689,0,0,0,.152-.586c.082-.38.184-.934.3-1.619.232-1.371.486-3.275.758-5.376s.554-4,.807-5.361c.124-.682.23-1.233.308-1.613a2.685,2.685,0,0,0,.093-.6,2.763,2.763,0,0,0-.19.575c-.109.374-.243.921-.39,1.6-.3,1.359-.61,3.259-.883,5.363-.263,2.073-.5,3.949-.683,5.382-.087.647-.16,1.193-.219,1.629A2.782,2.782,0,0,0,135.781,352.153Z" transform="translate(-135.775 -337)" fill="#263238"/></g><g transform="translate(1.609 20.58)"><path d="M105.378,356.342a3.925,3.925,0,0,0,.715.1c.461.051,1.129.122,1.95.236,1.644.215,3.905.59,6.381,1.112s4.7,1.1,6.29,1.556c.8.223,1.44.421,1.885.556a3.806,3.806,0,0,0,.7.187,3.944,3.944,0,0,0-.666-.282c-.435-.164-1.07-.388-1.864-.635-1.585-.505-3.806-1.105-6.289-1.634a64.365,64.365,0,0,0-6.413-1.041c-.827-.091-1.5-.135-1.964-.155A3.907,3.907,0,0,0,105.378,356.342Z" transform="translate(-105.378 -356.33)" fill="#263238"/></g><g transform="translate(26.883 21.798)"><path d="M148.269,380.871a.914.914,0,0,0,.129-.215l.323-.635c.279-.553.661-1.363,1.119-2.371.918-2.014,2.1-4.836,3.357-7.968s2.412-5.961,3.286-7.991l1.042-2.4.28-.655a.126.126,0,1,0-.047-.022l-.324.635c-.278.554-.66,1.364-1.118,2.372-.918,2.014-2.1,4.836-3.358,7.968s-2.411,5.961-3.286,7.992l-1.043,2.4-.28.655A.913.913,0,0,0,148.269,380.871Z" transform="translate(-148.268 -358.397)" fill="#263238"/></g><g transform="translate(3.152 36.089)"><path d="M108,382.651a.969.969,0,0,0,.235.1l.689.246,2.542.88c2.145.743,5.1,1.8,8.357,2.982s6.226,2.212,8.388,2.913c1.081.351,1.958.625,2.568.8l.7.2a.99.99,0,0,0,.25.053.917.917,0,0,0-.235-.1l-.688-.246-2.542-.88c-2.146-.744-5.1-1.805-8.358-2.982s-6.224-2.212-8.386-2.912c-1.081-.351-1.959-.625-2.569-.8l-.7-.2A.931.931,0,0,0,108,382.651Z" transform="translate(-107.996 -382.648)" fill="#263238"/></g></g></svg>