<svg xmlns="http://www.w3.org/2000/svg" width="541.791" height="137.182" viewBox="0 0 541.791 137.182"><path d="M332.123,479.246c-2.593-19.867,17.312-35.505,36.422-41.523s40.528-7.5,56.184-20.006c16.543-13.213,24.462-37.214,44.4-44.342,14.482-5.177,30.261.518,45.427,3.074A111.216,111.216,0,0,0,597.915,356.6c6.145-4.523,11.968-9.77,19.13-12.4,7.321-2.692,15.386-2.4,23.133-1.486,20.832,2.448,42.269,9.865,55.524,26.121,6.762,8.3,11.048,18.465,18.323,26.316,11.749,12.678,29.664,17.6,46.848,19.466s34.737,1.284,51.488,5.55a92.528,92.528,0,0,1,61.324,52.608c-3.769-.407-8.53,2.073-12.3,1.666Z" transform="translate(-331.894 -342.064)" fill="#cacaca"/></svg>