<svg xmlns="http://www.w3.org/2000/svg" xmlns:xlink="http://www.w3.org/1999/xlink" width="336.631" height="481.354" viewBox="0 0 336.631 481.354"><defs><linearGradient id="a" x1="1" y1="0.5" x2="0" y2="0.5" gradientUnits="objectBoundingBox"><stop offset="0" stop-color="#fff"/><stop offset="1" stop-color="#fff" stop-opacity="0"/></linearGradient><linearGradient id="b" x1="1" y1="0.5" x2="0" y2="0.5" gradientUnits="objectBoundingBox"><stop offset="0.349" stop-color="#fff"/><stop offset="0.41" stop-color="#fff" stop-opacity="0.976"/><stop offset="0.491" stop-color="#fff" stop-opacity="0.91"/><stop offset="0.584" stop-color="#fff" stop-opacity="0.8"/><stop offset="0.685" stop-color="#fff" stop-opacity="0.647"/><stop offset="0.794" stop-color="#fff" stop-opacity="0.455"/><stop offset="0.906" stop-color="#fff" stop-opacity="0.22"/><stop offset="1" stop-color="#fff" stop-opacity="0"/></linearGradient></defs><g transform="translate(3.5 0)"><path d="M643.824,292.931v-74.1a61.392,61.392,0,0,0-61.393-61.391h-3.745a61.392,61.392,0,0,0-61.391,61.391v74.1" transform="translate(-517.294 -106.259)" fill="none" stroke="#3ea66d" stroke-miterlimit="10" stroke-width="7"/><path d="M466.285,292.931H664.137V157.443H526.5c-26.971,0-60.22,21.862-60.22,48.833Z" transform="translate(-461.193 -106.259)" fill="#1f844d"/><path d="M510.475,214.912h94.338A20.279,20.279,0,0,0,624.927,197.2l11.339-33.594H529.388c-17.428,0-41.175,14.166-37.713,34.223,1.534,8.885,8.058,16.463,17.419,17.036Q509.777,214.912,510.475,214.912Z" transform="translate(-470.849 -103.187)" fill="#33a165" opacity="0.26"/><g transform="translate(78.063 0)"><path d="M532.863,123.276h29.225V236.449a16.908,16.908,0,1,1-33.815,0v-21.5l21.645-14.609V146.123H532.863a8.2,8.2,0,0,1-8.2-8.2v-6.454A8.2,8.2,0,0,1,532.863,123.276Z" transform="translate(-524.667 -123.276)" fill="#3cae70"/><path d="M531.786,199.833a5.945,5.945,0,1,0,5.944-5.946A5.946,5.946,0,0,0,531.786,199.833Z" transform="translate(-516.919 -88.109)" fill="#1f844d"/></g><rect width="131.907" height="34.639" transform="translate(5.092 152.033)" fill="#1f844d"/><path d="M40.981,0H85.548A40.982,40.982,0,0,1,126.53,40.982v94.507a0,0,0,0,1,0,0H0a0,0,0,0,1,0,0V40.981A40.981,40.981,0,0,1,40.981,0Z" transform="translate(139.678 51.183)" fill="#cdb5c2"/><rect width="193.453" height="12.611" transform="translate(139.678 174.061)" fill="#3ea66d"/><rect width="30.407" height="294.682" transform="translate(93.656 186.672)" fill="#26975a"/><path d="M518.94,280.068l30.407,14.98V247.886H518.94Z" transform="translate(-425.284 -61.215)" fill="#1f844d"/><g transform="translate(144.472 90.736)"><path d="M410.546,183.846H554.719V267.17H406.125V205.684A55.836,55.836,0,0,1,410.546,183.846Z" transform="translate(-406.125 -183.846)" fill="#f3f3f5"/><rect width="80.352" height="83.324" transform="translate(68.241 0)" fill="url(#a)"/><rect width="26.263" height="2.311" transform="translate(112.232 10.833)" fill="#9e9e9e"/><rect width="26.263" height="2.311" transform="translate(112.232 16.427)" fill="#9e9e9e"/><rect width="26.263" height="2.311" transform="translate(112.232 22.021)" fill="#9e9e9e"/><rect width="9.662" height="2.311" transform="translate(128.833 27.614)" fill="#9e9e9e"/><ellipse cx="17.294" cy="17.294" rx="17.294" ry="17.294" transform="translate(14.91 14.031)" fill="#d6d6d6"/><g transform="translate(21.449 35.942)"><rect width="81.795" height="47.383" transform="translate(0)" fill="#ededed"/><path d="M518.193,207.839l-40.9,29.1-40.9-29.1Z" transform="translate(-436.398 -207.839)" fill="url(#b)"/></g></g><g transform="translate(144.472 51.184)" opacity="0.38" style="mix-blend-mode:multiply;isolation:isolate"><path d="M513.084,157.443h3.745a61.527,61.527,0,0,1,15.2,1.9,61.415,61.415,0,0,0-46.2,59.493v74.1H451.691v-74.1A61.392,61.392,0,0,1,513.084,157.443Z" transform="translate(-451.691 -157.443)" fill="#606060"/></g><g transform="translate(134.435 45.939)"><path d="M489.606,153.942h3.747a66.112,66.112,0,0,1,63.014,44.8l-11.322,0a55.618,55.618,0,0,0-51.692-34.311h-3.747a56.212,56.212,0,0,0-56.148,56.15v74.1H422.971v-74.1A66.71,66.71,0,0,1,489.606,153.942Z" transform="translate(-422.971 -153.942)" fill="#3ea66d"/></g></g></svg>