<svg xmlns="http://www.w3.org/2000/svg" width="177.786" height="152.866" viewBox="0 0 177.786 152.866"><path d="M619.266,369.826c.02,0,.061.02.081.02a30.778,30.778,0,0,1,4.829,1.766s-5.661,13.108-9.111,21.1l-11.444.061c-.629-3.815,4.424-4.972,4.85-5.073-.365-3.267-.609-6.29-.609-6.29s-8.624,2.131-18.506,4.545V367.107S611.068,366.8,619.266,369.826Z" transform="translate(-446.389 -239.971)" fill="#545454"/><path d="M520.194,303.572l26.2-51.013c-3.247,14.549-21.123,51.013-21.123,51.013Z" transform="translate(-406.224 -173.452)" fill="#1f844d"/><path d="M512.466,187.415a30.977,30.977,0,0,0,2.7,2.475c-8.055,12.723-14.508,17.309-26.561,21.1-.751-.852-1.5-1.684-2.191-2.5C494,207.4,507.7,196.85,512.466,187.415Z" transform="translate(-386.605 -135.62)" fill="#1f844d"/><path d="M499.8,258.853h-5.073l26.2-51.013a15.733,15.733,0,0,0,.507-3.916c-.385-10-6.148-16.355-12.114-20.92-8.055,12.723-14.508,17.309-26.561,21.1a64.434,64.434,0,0,0,8.1,7.873c-.568,1.846-1.177,3.9-1.846,6.128-5.783,19.46-14.63,51.236-12.277,56.207,3.43,7.224,11.14,8.116,19.886,6.574,4.444-.792,16.5-3.632,27.109-6.168V258.386C511.707,258.63,499.8,258.853,499.8,258.853Zm6.818-78.324c-1.319-1.34-2.881-3.044-4.586-4.972-2.963,3.409-12.134,6.25-17.938,3.267a8.02,8.02,0,0,1-2.516-1.928l-2.07,9.537s-.507,0-1.481-.041c-.487,3.612-.974,7.224-1.42,10.511v.021c.913,1.075,2.313,2.78,3.957,4.687C488.149,200.515,501.845,189.964,506.614,180.529Z" transform="translate(-380.753 -128.733)" fill="#26975a"/><path d="M461.54,133.779l-2.07,9.537s-.507,0-1.481-.041c-2.516-.081-8.178-.3-16.152-.852l.142-4.566.345-11.931.142-5.052v-.081c.081-.649.142-1.3.2-1.948v-.021c.69-8.4.426-16.72,7.122-17.511a13,13,0,0,1,8.177,3.45c4.159,3.795,15.766,18.323,24.025,27.677-2.962,3.409-12.134,6.25-17.938,3.267l-.507-11.1Z" transform="translate(-360.718 -85.616)" fill="#e3f2ea"/><path d="M472.038,239.3l-5.519-12.783c.913,1.075,2.313,2.78,3.957,4.687.69.812,1.441,1.644,2.191,2.5a64.416,64.416,0,0,0,8.1,7.873c-.568,1.846-1.177,3.9-1.846,6.128-4.424-.142-12.865-.447-19.946-.69,3.247-3.166,5.438-5.5,5.56-6.25.041-.183.1-.568.183-1.1C467.208,239.487,469.806,239.365,472.038,239.3Z" transform="translate(-370.668 -158.331)" fill="#1f844d"/><path d="M490.841,156.875l.507,11.1a8.014,8.014,0,0,1-2.516-1.928Z" transform="translate(-388.01 -117.884)" fill="#8aaff7"/><path d="M474.473,226.521l5.519,12.783c-2.232.061-4.829.183-7.325.365C472.992,237.438,473.661,232.487,474.473,226.521Z" transform="translate(-378.623 -158.331)" fill="#26975a"/><path d="M403.161,245.167c-2.516,2.253-4.931,4.4-7.1,6.311l-7.122-8.4,21.631-24.735.264-9.009.284-9.963c7.974.548,13.636.771,16.152.852-.487,3.612-.974,7.224-1.42,10.511v.021c-.812,5.966-1.481,10.917-1.806,13.149-.081.528-.142.913-.183,1.1-.122.751-2.313,3.084-5.56,6.25-3.389,3.287-7.954,7.467-12.52,11.586C404.906,243.625,404.034,244.4,403.161,245.167Z" transform="translate(-329.996 -142.562)" fill="#ffc7ae"/><path d="M441.626,118.3c-1.948-7.224-2.293-13.879,2.09-16.9a27.86,27.86,0,0,1,5.154-.162c-6.7.792-6.432,9.111-7.122,17.511C441.707,118.6,441.666,118.441,441.626,118.3Z" transform="translate(-359.797 -85.537)" fill="#26975a"/><path d="M419.107,114c.406.2.669.345.669.345s2.922-.081,4.444-3.977c1.968-5.053-.893-6.575-.893-6.575s-.467-.467-1.075-1.116c2.516-.345,4.89-.751,7.122-.974-4.383,3.024-4.038,9.679-2.09,16.9l-.081,2.415v.081l-.142,5.052-5.8.548c-1.907-1.522-5.377-6.351-5.7-12.682.284-.487.528-.953.73-1.38a27.185,27.185,0,0,1,2.8,1.339Z" transform="translate(-345.455 -85.841)" fill="#e3f2ea"/><path d="M418.316,148.062c-3.591-4.829-6.453-10.145-6.635-14.63l-.142-.162a8.891,8.891,0,0,0,1.684-2.192c.325,6.331,3.795,11.161,5.7,12.682l5.8-.548-.345,11.931A68.68,68.68,0,0,1,418.316,148.062Z" transform="translate(-343.123 -102.902)" fill="#26975a"/><path d="M385.423,256.837l-1.928,2.191c-.365-8.644-.609-16.9-.609-22.564a10.836,10.836,0,0,1,1.136-5.032c4.221-8.441,19.175-8.482,23.295-8.34l-.264,9.009Z" transform="translate(-326.483 -156.322)" fill="#26975a"/><path d="M388.424,102.457c2.922,2.009,6.676-.609,6.676-.609.609.649,1.075,1.116,1.075,1.116s2.861,1.522.893,6.575c-1.522,3.9-4.444,3.977-4.444,3.977s-.264-.142-.67-.345l-.02-.02-2.232-2.577s-.223.527-.568,1.238c-.2.426-.446.893-.73,1.38a8.892,8.892,0,0,1-1.684,2.192,1.591,1.591,0,0,1-.974.487,28.038,28.038,0,0,1-7.082-1.2,25.706,25.706,0,0,1-9.862-4.951,20.27,20.27,0,0,0,6.29-4.667c1.806-1.36,3.713.791,4.971.568,1.278-.223,1.664-.589,2.476-.507.832.1,2.881,1.887,3.47.933s-3.044-3.409-3.044-3.409c-.244-2.09,1.745-3.023,3.693-1.846a5.644,5.644,0,0,1,1.745,1.643A.02.02,0,0,1,388.424,102.457Zm.528.994a1.619,1.619,0,0,1-.71,2.171s1.968,1.6,2.922.69C392.057,105.461,389.257,103.634,388.952,103.451Z" transform="translate(-318.304 -85.016)" fill="#ffc7ae"/><path d="M382.795,343.146l2.537-.041,1.563-.041-2.374,30.275a34.1,34.1,0,0,1,.345,5.54H355.3a5.885,5.885,0,0,1,2.272-4c2.293-1.988,11.809-7.1,11.809-7.1s-.649-11.059-1.258-24.329Z" transform="translate(-310.462 -226.013)" fill="#545454"/><path d="M375.4,69.08c.02,0,.02,0,.02.021,3.673,2.739,3.916,6.635,4.586,7.812a27.24,27.24,0,0,0,3.206,3.795s-3.754,2.617-6.676.609a.02.02,0,0,0-.02-.021,5.645,5.645,0,0,0-1.745-1.643c-1.948-1.177-3.937-.244-3.693,1.846,0,0,3.632,2.455,3.044,3.409s-2.638-.832-3.47-.933c-.812-.081-1.2.284-2.476.507-1.258.223-3.165-1.928-4.971-.568a20.268,20.268,0,0,1-6.29,4.667l-.122.061a7.657,7.657,0,0,1-2.557.791,5.868,5.868,0,0,1-5.377-3.206,3.814,3.814,0,0,1-.527-1.867c.041-1.542,1.44-2.678,2.7-3.571a2.953,2.953,0,0,1,1.278-5.54,2.769,2.769,0,0,1,.366-2.6,2.815,2.815,0,0,1,2.395-1.1,6.873,6.873,0,0,1,0-3.084,5.219,5.219,0,0,1,1.907-2.394,6.449,6.449,0,0,1,2.861-1.36,3.583,3.583,0,0,1,2.983.751,3.934,3.934,0,0,1,5.54-.792,3.442,3.442,0,0,0,.69.528,4.7,4.7,0,0,0,1.765,0c1.218.02,2.171,1.035,2.962,1.968C374.322,67.8,374.87,68.43,375.4,69.08Z" transform="translate(-306.413 -63.874)" fill="#545454"/><path d="M387.567,160.706l-14.021-6.655,7.873-19.439a28.038,28.038,0,0,0,7.082,1.2,1.591,1.591,0,0,0,.974-.487l.142.162c.182,4.484,3.044,9.8,6.635,14.63l-7.508,11.14Z" transform="translate(-321.058 -104.955)" fill="#e3f2ea"/><path d="M424.33,303.039c-.284,4.951-.589,10.9-.913,16.822l-2.536.041c.2-3.653.527-9.071.832-14.529C422.584,304.6,423.457,303.831,424.33,303.039Z" transform="translate(-348.547 -202.768)" fill="#6b6bdd"/><path d="M417.867,124.835l2.232,2.577a27.189,27.189,0,0,0-2.8-1.34C417.643,125.362,417.867,124.835,417.867,124.835Z" transform="translate(-346.467 -99.277)" fill="#f3b197"/><path d="M415.879,107.847c.3.183,3.1,2.009,2.212,2.861-.953.913-2.922-.69-2.922-.69A1.619,1.619,0,0,0,415.879,107.847Z" transform="translate(-345.231 -89.411)" fill="#f3b197"/><path d="M401.305,308.605c-.3,5.458-.629,10.876-.832,14.529l-14.671.3c-.02-.365-.041-.751-.061-1.137,0,0,.223-.182.649-.548l.061-.061,8.279-6.148-.527-.629C396.375,313.008,398.789,310.858,401.305,308.605Z" transform="translate(-328.141 -206.001)" fill="#26975a"/><path d="M371.568,312.021l.527.629-8.279,6.148-.061.061c-.426.365-.649.547-.649.547s-2.212,5.012-3.936,6.29c-1.7,1.258-3.023,2.049-5.519,1.745s-6.737-2.719-6.879-3.49c-.162-.792,2.8-2.415,3.348-2.942.528-.507,3.145-4.728,3.145-4.728-1.319-.264-5.093,3.389-5.763,2.171-.649-1.2,3.044-5.134,4.079-5.56a28,28,0,0,1,5.194-.527l5.742-6.554,1.928-2.191Z" transform="translate(-305.506 -203.106)" fill="#edbf4c"/><path d="M328.574,180.978l14.021,6.655c-3.774,7.488-8.015,15.909-9.6,19.013-.223.467-.406.812-.507,1.015-1.055,2.049-19.317,14.63-30.579,22.239l-5.8-8.36,24.958-22.077Z" transform="translate(-276.086 -131.882)" fill="#ffc7ae"/><path d="M279.86,286.087l.609.872-9.111,5.783a4.522,4.522,0,0,1-1.055,3.044c-1.2,1.6-2.617,3.267-4.728,2.84.142-.345.325-.771.487-1.238,0-1.2-.852-3.023-1.826-3.185a3.009,3.009,0,0,0-2.455.771c-.426,1.3-.832,2.6-1.015,3.307-1.279-.751-2.232-1.4-2.476-2.354-.264-.994-.264-5.275.629-7.163.609-1.3,4.606-2.963,7.021-3.876l8.117-7.163Z" transform="translate(-254.035 -188.068)" fill="#edbf4c"/><path d="M255.489,330.184l.609-1.319c.345-.974,1.521,0,1.521,0l-.446,1.765-.67,2.557s4.667,3.1,4.464,3.936-5.154,6.575-8.7,5.114-4.728-9.476-3.348-9.476c1.4,0,5.438-.162,5.438-.162Z" transform="translate(-248.352 -217.515)" fill="#c2d2dc"/><path d="M264.261,321.058c.182-.71.588-2.009,1.015-3.308a3.009,3.009,0,0,1,2.455-.771c.974.162,1.826,1.988,1.826,3.185-.162.467-.345.893-.487,1.238-.223.569-.385.934-.385.934a2.6,2.6,0,0,1-2.333,1.623l.446-1.766s-1.177-.974-1.522,0l-.609,1.319c-.589-.507-.507-1.4-.507-1.948A2.977,2.977,0,0,1,264.261,321.058Z" transform="translate(-257.53 -210.845)" fill="#545454"/></svg>