<svg xmlns="http://www.w3.org/2000/svg" width="19.539" height="22.763" viewBox="0 0 19.539 22.763"><g transform="translate(0)"><path d="M310.46,388.168s10.1-3.753,8.732-6.035-6.3,0-6.3,0,1.752-6.534-1.4-5.94-2.673,5.689-2.673,5.689-2.524-6.367-4.009-4.228.573,5.7.573,5.7-6.216-2.792-5.563,0S310.46,388.168,310.46,388.168Z" transform="translate(-299.779 -376.156)" fill="#fad05b"/><path d="M316.33,402.778s-5.257-1.693-5.465-1.841,4.988.158,5.4.158,5.793-1.227,6.09-.87S316.33,402.778,316.33,402.778Z" transform="translate(-306.214 -390.096)" fill="#1f844d"/><path d="M322.718,404.927a45.921,45.921,0,0,1-.262,10.632H323.6l-.255-10.751Z" transform="translate(-312.949 -392.796)" fill="#1f844d"/><path d="M324.586,414.309s2.479-5.1,9.139-3.643a9.438,9.438,0,0,1-4.255,3.643A7.353,7.353,0,0,1,324.586,414.309Z" transform="translate(-314.186 -396.045)" fill="#1f844d"/><path d="M311.927,409.782s-2.479-5.1-9.139-3.643a9.437,9.437,0,0,0,4.255,3.643A7.352,7.352,0,0,0,311.927,409.782Z" transform="translate(-301.527 -393.416)" fill="#1f844d"/></g></svg>