<svg xmlns="http://www.w3.org/2000/svg" width="15.464" height="18.017" viewBox="0 0 15.464 18.017"><path d="M269.764,391.341s7.992-2.971,6.911-4.776-4.983,0-4.983,0,1.387-5.171-1.1-4.7-2.116,4.5-2.116,4.5-2-5.039-3.173-3.346.454,4.513.454,4.513-4.92-2.209-4.4,0S269.764,391.341,269.764,391.341Z" transform="translate(-261.311 -381.834)" fill="#fad05b"/><path d="M274.41,402.9s-4.161-1.34-4.325-1.457,3.948.125,4.277.125,4.585-.971,4.82-.689S274.41,402.9,274.41,402.9Z" transform="translate(-266.404 -392.867)" fill="#1f844d"/><path d="M279.466,404.6a36.344,36.344,0,0,1-.207,8.415h.909l-.2-8.509Z" transform="translate(-271.734 -395.004)" fill="#1f844d"/><path d="M280.945,412.031s1.963-4.039,7.233-2.883a7.468,7.468,0,0,1-3.368,2.883A5.821,5.821,0,0,1,280.945,412.031Z" transform="translate(-272.713 -397.576)" fill="#1f844d"/><path d="M270.925,408.448s-1.962-4.039-7.233-2.883a7.473,7.473,0,0,0,3.368,2.883A5.822,5.822,0,0,0,270.925,408.448Z" transform="translate(-262.694 -395.495)" fill="#1f844d"/></svg>