<svg xmlns="http://www.w3.org/2000/svg" width="279.314" height="149.513" viewBox="0 0 279.314 149.513"><g transform="translate(0 -7.597)"><g transform="translate(0 0)"><path d="M86.018,404.449a3.568,3.568,0,0,0-1.56-1.379,8.911,8.911,0,0,0-3.132-.659,8.426,8.426,0,0,0-1.325.1,7.977,7.977,0,0,0,2.09-2.791,9.893,9.893,0,0,0,.756-2.738c.028-.778.132-1.7-.541-2.238a.265.265,0,0,0-.425.277,2.974,2.974,0,0,1-1.527,2.436c-.5.22-1.046.285-1.558.538a8.186,8.186,0,0,0-1.713,1.09c-.257.218-.506.452-.745.7.139-.676.266-1.355.428-2.03a8.97,8.97,0,0,0,.438-2.81.246.246,0,0,0-.4-.135c-.48.518-1.122.763-1.607,1.31-.421.476-.835.964-1.278,1.419a8.334,8.334,0,0,0-2.045,3.625,6.409,6.409,0,0,0-.249,1.91l-.477-.285c-1.3-.779-3.765-1.672-4.912-.26-.043.054-.01.157.069.146,1.2-.162,2.124,1.084,2.814,1.882a16.536,16.536,0,0,0,2.28,2.362,6.517,6.517,0,0,0,2.982,1.458,4.386,4.386,0,0,0,2.934-.68c2.9-.216,5.7-1.983,8.515-2.638A.372.372,0,0,0,86.018,404.449Z" transform="translate(-56.016 -255.988)" fill="#dbe7ee"/><path d="M464.527,404.449a3.57,3.57,0,0,0-1.56-1.379,8.913,8.913,0,0,0-3.132-.659,8.431,8.431,0,0,0-1.325.1,7.972,7.972,0,0,0,2.09-2.791,9.9,9.9,0,0,0,.756-2.738c.028-.778.131-1.7-.541-2.238a.265.265,0,0,0-.425.277,2.975,2.975,0,0,1-1.527,2.436c-.5.22-1.046.285-1.557.538a8.2,8.2,0,0,0-1.714,1.09c-.257.218-.506.452-.745.7.14-.676.266-1.355.428-2.03a8.974,8.974,0,0,0,.438-2.81.246.246,0,0,0-.4-.135c-.48.518-1.123.763-1.607,1.31-.421.476-.835.964-1.278,1.419a8.33,8.33,0,0,0-2.046,3.625,6.427,6.427,0,0,0-.249,1.91l-.477-.285c-1.3-.779-3.765-1.672-4.912-.26-.043.054-.01.157.07.146,1.2-.162,2.124,1.084,2.814,1.882a16.558,16.558,0,0,0,2.28,2.362,6.522,6.522,0,0,0,2.982,1.458,4.385,4.385,0,0,0,2.934-.68c2.9-.216,5.7-1.983,8.515-2.638A.372.372,0,0,0,464.527,404.449Z" transform="translate(-275.834 -255.988)" fill="#dbe7ee"/><g transform="translate(18.123 20.87)"><g transform="translate(1.419 27.693)"><rect width="2.523" height="13.735" transform="translate(8.324 31.146)" fill="#a4b6c5"/><path d="M100.453,181.147a2.666,2.666,0,0,0-4.733,0c-4.938,9.51-14.541,31.521,2.367,31.521S105.391,190.657,100.453,181.147Z" transform="translate(-88.501 -179.708)" fill="#c2d2dc"/></g><g transform="translate(185.419 8.432)"><path d="M587.058,150.839l1.871,66.3h-3.742Z" transform="translate(-560.95 -143.681)" fill="#a4b6c5"/><path d="M588.3,224.825l15.731-14.6-14.6,15.731Z" transform="translate(-562.756 -178.171)" fill="#a4b6c5"/><path d="M560.967,229.153l-19.73-20.864,20.864,19.73Z" transform="translate(-535.426 -177.044)" fill="#a4b6c5"/><path d="M618.882,183.372a2.474,2.474,0,0,0-3.107-3.107c-9.481,3-30.23,11.144-19.134,22.24S615.882,192.854,618.882,183.372Z" transform="translate(-565.754 -160.701)" fill="#c2d2dc"/><path d="M527.5,195.639a2.474,2.474,0,0,1,3.107-3.107c9.482,3,30.231,11.144,19.134,22.241S530.5,205.121,527.5,195.639Z" transform="translate(-527.376 -167.825)" fill="#c2d2dc"/><path d="M576.829,135.457a3.132,3.132,0,0,0-5.562,0c-5.8,11.174-17.087,37.039,2.781,37.039S582.632,146.631,576.829,135.457Z" transform="translate(-547.94 -133.766)" fill="#c2d2dc"/></g><g transform="translate(16.798)"><g transform="translate(61.933 36.699)"><rect width="78.345" height="38.389" fill="#dbe7ee"/><g transform="translate(0 3.225)" style="mix-blend-mode:multiply;isolation:isolate"><rect width="78.345" height="0.44" fill="#eff4f6"/><g transform="translate(0 6.486)"><rect width="78.345" height="0.44" fill="#eff4f6"/></g><g transform="translate(0 12.972)"><rect width="78.345" height="0.44" fill="#eff4f6"/></g><g transform="translate(0 19.458)"><rect width="78.345" height="0.44" fill="#eff4f6"/></g><g transform="translate(0 25.944)"><rect width="78.345" height="0.44" fill="#eff4f6"/></g><g transform="translate(0 32.43)"><rect width="78.345" height="0.44" fill="#eff4f6"/></g></g></g><g transform="translate(55.118 7.867)"><path d="M275.656,132.418l-19.008,26.4h88.8l-19.008-26.4Z" transform="translate(-256.648 -132.418)" fill="#a4b6c5"/><path d="M330.8,195.381H256.648v4.2h88.8v-4.2Z" transform="translate(-256.648 -168.984)" fill="#c2d2dc"/></g><g transform="translate(78.907 1.541)"><rect width="12.918" height="12.918" transform="translate(0.899 3.743)" fill="#dbe7ee"/><rect width="14.717" height="3.743" fill="#a4b6c5"/><g transform="translate(0.899 5.652)"><rect width="12.919" height="0.44" fill="#dbe7ee"/><g transform="translate(0 3.964)" style="mix-blend-mode:multiply;isolation:isolate"><rect width="12.919" height="0.44" fill="#dbe7ee"/></g><g transform="translate(0 7.927)" style="mix-blend-mode:multiply;isolation:isolate"><rect width="12.919" height="0.44" fill="#dbe7ee"/></g></g></g><g transform="translate(18.354 38.112)"><path d="M188.56,204.558v36.979h-19.6V204.558Zm-1.142,35.647V225.372H170.1v14.833Zm0-19.483V205.884H170.1v14.839Z" transform="translate(-168.96 -204.558)" fill="#704019"/><rect width="17.317" height="14.833" transform="translate(1.141 20.814)" fill="#8e5024"/><rect width="17.317" height="14.839" transform="translate(1.141 1.326)" fill="#8e5024"/></g><g transform="translate(5.227 29.689)"><rect width="78.345" height="45.4" transform="translate(0)" fill="#eff4f6"/><g transform="translate(0 3.855)" style="mix-blend-mode:multiply;isolation:isolate"><rect width="78.345" height="0.44" fill="#dbe7ee"/><g transform="translate(0 7.67)"><rect width="78.345" height="0.44" fill="#dbe7ee"/></g><g transform="translate(0 15.34)"><rect width="78.345" height="0.44" fill="#dbe7ee"/></g><g transform="translate(0 23.011)"><rect width="78.345" height="0.44" fill="#dbe7ee"/></g><g transform="translate(0 30.681)"><rect width="78.345" height="0.44" fill="#dbe7ee"/></g><g transform="translate(0 38.351)"><rect width="78.345" height="0.44" fill="#dbe7ee"/></g></g></g><rect width="19.6" height="36.979" transform="translate(18.354 38.112)" fill="#c2d2dc"/><rect width="15.93" height="31.198" transform="translate(20.189 42.131)" fill="#a4b6c5"/><path d="M189.279,248.288v11.56h-12.7v-11.56h12.7m.44-.441H176.138v12.441h13.581V247.847Z" transform="translate(-154.774 -191.586)" fill="#c2d2dc"/><rect width="13.581" height="11.597" transform="translate(21.364 43.361)" fill="#fff"/><path d="M144.19,113.654l-19.008,26.4h88.8l-19.008-26.4Z" transform="translate(-125.181 -113.654)" fill="#a4b6c5"/><path d="M199.333,176.617H125.181v4.2h88.8v-4.2Z" transform="translate(-125.181 -150.22)" fill="#c2d2dc"/><rect width="22.793" height="2.168" transform="translate(16.757 38.112)" fill="#a4b6c5"/><g transform="translate(47.678 38.112)"><g transform="translate(1.024 1.728)"><rect width="23.672" height="18.146" transform="translate(0.44 0.441)" fill="#fff"/><path d="M265.9,227.706H241.346V208.679H265.9Zm-23.672-.881h22.791V209.56H242.227Z" transform="translate(-241.346 -208.679)" fill="#a4b6c5"/></g><rect width="26.6" height="2.168" fill="#a4b6c5"/><rect width="26.6" height="2.168" transform="translate(0 20.314)" fill="#a4b6c5"/><g transform="translate(1.464 6.772)"><rect width="23.672" height="0.881" fill="#a4b6c5"/></g><g transform="translate(12.86 0.35)"><rect width="0.881" height="20.202" fill="#a4b6c5"/></g></g><g transform="translate(97.168 42.992)"><g transform="translate(1.024 1.728)"><rect width="23.672" height="18.146" transform="translate(0.44 0.44)" fill="#fff"/><path d="M383.942,239.346H359.389V220.319h24.553Zm-23.672-.881h22.791V221.2H360.27Z" transform="translate(-359.389 -220.319)" fill="#a4b6c5"/></g><rect width="26.6" height="2.168" fill="#a4b6c5"/><rect width="26.6" height="2.168" transform="translate(0 20.314)" fill="#a4b6c5"/><g transform="translate(1.464 6.772)"><rect width="23.672" height="0.881" fill="#a4b6c5"/></g><g transform="translate(12.86 0.672)"><rect width="0.881" height="19.642" fill="#a4b6c5"/></g></g><rect width="0.624" height="12.069" transform="translate(27.842 43.125)" fill="#a4b6c5"/><rect width="0.624" height="13.907" transform="translate(35.107 48.848) rotate(90)" fill="#a4b6c5"/><path d="M189.279,280.457v1.486h-12.7v-1.486h12.7m.44-.44H176.138v2.367h13.581v-2.367Z" transform="translate(-154.774 -210.269)" fill="#c2d2dc"/><path d="M287.316,272.774a11.885,11.885,0,0,1-.322,2.761H263.372a11.861,11.861,0,0,1-.322-2.761,12.133,12.133,0,0,1,24.266,0Z" transform="translate(-205.248 -199.016)" fill="#a4b6c5"/><path d="M320.054,280.037c0,.282-.013.559-.035.837H299.672c-.022-.278-.035-.555-.035-.837a10.208,10.208,0,0,1,20.417,0Z" transform="translate(-226.496 -204.354)" fill="#c2d2dc"/></g><g transform="translate(0 68.23)"><rect width="67.11" height="2.259" transform="translate(0 4.348)" fill="#c2d2dc"/><path d="M237.517,295.616h-3.106V278.391l1.553-1.995,1.553,1.995Z" transform="translate(-171.819 -276.396)" fill="#c2d2dc"/><path d="M213.439,295.616h-3.106V278.391l1.553-1.995,1.553,1.995Z" transform="translate(-157.835 -276.396)" fill="#c2d2dc"/><path d="M189.361,295.616h-3.106V278.391l1.553-1.995,1.553,1.995Z" transform="translate(-143.852 -276.396)" fill="#c2d2dc"/><path d="M165.283,295.616h-3.106V278.391l1.553-1.995,1.553,1.995Z" transform="translate(-129.869 -276.396)" fill="#c2d2dc"/><path d="M141.2,295.616H138.1V278.391l1.553-1.995,1.553,1.995Z" transform="translate(-115.885 -276.396)" fill="#c2d2dc"/><path d="M117.127,295.616h-3.106V278.391l1.553-1.995,1.553,1.995Z" transform="translate(-101.902 -276.396)" fill="#c2d2dc"/><path d="M93.049,295.616H89.943V278.391L91.5,276.4l1.553,1.995Z" transform="translate(-87.919 -276.396)" fill="#c2d2dc"/></g><g transform="translate(150.633 68.23)"><rect width="67.11" height="2.259" transform="translate(0 4.348)" fill="#c2d2dc"/><path d="M596.807,295.616H593.7V278.391l1.553-1.995,1.553,1.995Z" transform="translate(-531.109 -276.396)" fill="#c2d2dc"/><path d="M572.729,295.616h-3.106V278.391l1.553-1.995,1.553,1.995Z" transform="translate(-517.126 -276.396)" fill="#c2d2dc"/><path d="M548.651,295.616h-3.106V278.391L547.1,276.4l1.553,1.995Z" transform="translate(-503.142 -276.396)" fill="#c2d2dc"/><path d="M524.573,295.616h-3.106V278.391l1.553-1.995,1.553,1.995Z" transform="translate(-489.159 -276.396)" fill="#c2d2dc"/><path d="M500.5,295.616h-3.106V278.391l1.553-1.995,1.553,1.995Z" transform="translate(-475.176 -276.396)" fill="#c2d2dc"/><path d="M476.417,295.616h-3.106V278.391l1.553-1.995,1.553,1.995Z" transform="translate(-461.193 -276.396)" fill="#c2d2dc"/><path d="M452.339,295.616h-3.106V278.391l1.553-1.995,1.553,1.995Z" transform="translate(-447.209 -276.396)" fill="#c2d2dc"/></g></g><path d="M317.567,428.534H45.527A3.648,3.648,0,0,1,41.89,424.9h0a3.648,3.648,0,0,1,3.637-3.637H317.567A3.648,3.648,0,0,1,321.2,424.9h0A3.648,3.648,0,0,1,317.567,428.534Z" transform="translate(-41.89 -271.424)" fill="#dbe7ee"/><g transform="translate(190.072 8.319)"><rect width="52.479" height="6.074" rx="3.037" transform="translate(0 7.814)" fill="#e2eaed"/><rect width="39.835" height="6.822" rx="3.411" transform="translate(5.235 5.441)" fill="#e2eaed"/><rect width="16.391" height="10.851" rx="5.425" transform="translate(14.12)" fill="#e2eaed"/></g><g transform="translate(33.638 7.597)"><path d="M153.548,97.79h-30a1.432,1.432,0,0,1-1.427-1.428h0a1.432,1.432,0,0,1,1.427-1.428h30a1.432,1.432,0,0,1,1.428,1.428h0A1.432,1.432,0,0,1,153.548,97.79Z" transform="translate(-122.124 -89.51)" fill="#e2eaed"/><path d="M153.491,93.131H132.254a1.886,1.886,0,0,1-1.88-1.88h0a1.886,1.886,0,0,1,1.88-1.88h21.237a1.886,1.886,0,0,1,1.881,1.88h0A1.886,1.886,0,0,1,153.491,93.131Z" transform="translate(-126.915 -86.278)" fill="#e2eaed"/><rect width="12.382" height="4.972" rx="2.486" transform="translate(12.144)" fill="#e2eaed"/></g><path d="M243.849,419.386h-9.257a4.349,4.349,0,0,1-4.336-4.336h0a4.349,4.349,0,0,1,4.336-4.336h9.257a4.349,4.349,0,0,1,4.336,4.336h0A4.349,4.349,0,0,1,243.849,419.386Z" transform="translate(-151.283 -265.3)" fill="#dbe7ee"/><rect width="21.061" height="12.86" rx="6.43" transform="translate(68.605 141.226)" fill="#dbe7ee"/><path d="M196.749,420.449H179.876a2.7,2.7,0,0,1-2.688-2.688h0a2.7,2.7,0,0,1,2.688-2.688h16.873a2.7,2.7,0,0,1,2.688,2.688h0A2.7,2.7,0,0,1,196.749,420.449Z" transform="translate(-120.464 -267.832)" fill="#dbe7ee"/><path d="M373.546,180.978l13.617,7.457.4-.8Z" transform="translate(-234.498 -131.881)" fill="#f3b197"/><path d="M441.837,199.369l16.152.852-.152,1.142Z" transform="translate(-274.158 -142.562)" fill="#f3b197"/></g></g></svg>